<?xml version="1.0" encoding="UTF-8" standalone="no"?><!DOCTYPE svg PUBLIC "-//W3C//DTD SVG 1.1//EN" "http://www.w3.org/Graphics/SVG/1.1/DTD/svg11.dtd"><svg width="100%" height="100%" viewBox="0 0 1024 1024" version="1.1" xmlns="http://www.w3.org/2000/svg" xmlns:xlink="http://www.w3.org/1999/xlink" xml:space="preserve" xmlns:serif="http://www.serif.com/" style="fill-rule:evenodd;clip-rule:evenodd;stroke-linejoin:round;stroke-miterlimit:1.41421;"><g><path d="M524.28,684.243l0.405,0.015l11.318,0.808l0.712,0.061l4.901,0.585l7.141,0.876l5.047,0.847l6.698,1.154l5.154,1.117l6.398,1.424l5.191,1.382l6.152,1.685l5.195,1.645l5.925,1.931l5.181,1.912l4.542,1.723c-4.797,69.361 -37.919,130.96 -87.843,173.271c-50.648,-42.898 -83.976,-105.58 -88.062,-176.134l0.501,-0.188l5.465,-1.83l5.262,-1.703l5.14,-1.481l5.796,-1.575l4.997,-1.211l6.149,-1.359l4.901,-0.967l6.475,-1.108l4.778,-0.73l6.898,-0.84l4.525,-0.493l7.739,-0.563l4.092,-0.268l1.274,-0.046l10.174,-0.22l11.779,0.28Z" style="fill:#00bcd4;"/><path d="M814.785,683.963c-95.528,-30.356 -197.259,-46.737 -302.785,-46.737c-105.526,0 -207.257,16.381 -302.785,46.737l302.785,-534.642l302.785,534.642Zm-141.1,-101.404c-52.635,-8.884 -106.644,-13.503 -161.685,-13.503c-55.041,0 -109.051,4.619 -161.685,13.503l161.685,-295.923l161.685,295.923Z" style="fill:#00bcd4;"/></g></svg>