<?xml version="1.0" encoding="UTF-8" standalone="no"?><!DOCTYPE svg PUBLIC "-//W3C//DTD SVG 1.1//EN" "http://www.w3.org/Graphics/SVG/1.1/DTD/svg11.dtd"><svg width="100%" height="100%" viewBox="0 0 1024 1024" version="1.1" xmlns="http://www.w3.org/2000/svg" xmlns:xlink="http://www.w3.org/1999/xlink" xml:space="preserve" xmlns:serif="http://www.serif.com/" style="fill-rule:evenodd;clip-rule:evenodd;stroke-linejoin:round;stroke-miterlimit:1.41421;"><g><path d="M396.678,648.977l0.276,0.297l7.431,8.574l0.46,0.547l3.052,3.879l4.43,5.669l2.97,4.168l3.92,5.552l2.855,4.434l3.517,5.531l2.693,4.648l3.159,5.541l2.51,4.837l2.824,5.555l2.312,5.015l1.993,4.431c-52.437,45.653 -119.415,65.79 -184.635,60.406c-5.48,-66.147 15.276,-134.036 62.276,-186.814l0.488,0.221l5.158,2.57l4.925,2.517l4.681,2.587l5.212,2.985l4.39,2.677l5.309,3.387l4.15,2.782l5.361,3.795l3.895,2.862l5.472,4.284l3.548,2.851l5.871,5.074l3.082,2.704l0.934,0.869l7.35,7.038l8.131,8.527Z" style="fill:#00bcd4;"/><path d="M615.293,841.198c-46.084,-89.014 -106.436,-172.531 -181.054,-247.149c-74.618,-74.619 -158.135,-134.97 -247.149,-181.054l592.15,-163.947l-163.947,592.15Zm-28.07,-171.476c-30.936,-43.501 -65.86,-84.957 -104.78,-123.877c-38.92,-38.92 -80.377,-73.844 -123.877,-104.78l323.578,-94.921l-94.921,323.578Z" style="fill:#00bcd4;"/></g></svg>