<?xml version="1.0" encoding="UTF-8" standalone="no"?><!DOCTYPE svg PUBLIC "-//W3C//DTD SVG 1.1//EN" "http://www.w3.org/Graphics/SVG/1.1/DTD/svg11.dtd"><svg width="100%" height="100%" viewBox="0 0 980 150" version="1.1" xmlns="http://www.w3.org/2000/svg" xmlns:xlink="http://www.w3.org/1999/xlink" xml:space="preserve" xmlns:serif="http://www.serif.com/" style="fill-rule:evenodd;clip-rule:evenodd;stroke-linejoin:round;stroke-miterlimit:1.41421;"><g><path d="M58.292,104.297l0.066,0.002l1.829,0.131l0.115,0.01l0.792,0.094l1.154,0.142l0.816,0.137l1.083,0.186l0.833,0.181l1.034,0.23l0.839,0.223l0.994,0.272l0.84,0.266l0.957,0.312l0.838,0.309l0.734,0.279c-0.776,11.21 -6.129,21.166 -14.198,28.005c-8.186,-6.934 -13.573,-17.065 -14.233,-28.468l0.081,-0.03l0.883,-0.296l0.851,-0.275l0.83,-0.24l0.937,-0.254l0.808,-0.196l0.994,-0.22l0.792,-0.156l1.046,-0.179l0.773,-0.118l1.115,-0.136l0.731,-0.079l1.251,-0.091l0.661,-0.044l0.206,-0.007l1.644,-0.036l1.904,0.046Z" style="fill:#00bcd4;"/><path d="M105.938,104.251c-15.44,-4.906 -31.882,-7.553 -48.938,-7.553c-17.055,-0.001 -33.497,2.647 -48.937,7.553l48.937,-86.411l48.938,86.411Zm-22.805,-16.389c-8.507,-1.436 -17.237,-2.183 -26.133,-2.183c-8.896,0 -17.625,0.747 -26.132,2.183l26.132,-47.829l26.133,47.829Z" style="fill:#00bcd4;"/></g><text x="128.737px" y="107.377px" style="font-family:'AvenirNext-UltraLight', 'Avenir Next', sans-serif;font-weight:275;font-size:87.342px;">P<tspan x="180.055px 233.347px 308.351px 351.416px 404.349px 468.766px 515.06px 537.49px 590.782px 643.715px 695.033px 746.352px 799.285px 843.964px 864.958px " y="107.377px 107.377px 107.377px 107.377px 107.377px 107.377px 107.377px 107.377px 107.377px 107.377px 107.377px 107.377px 107.377px 107.377px 107.377px ">ROJECT ZEPPELIN</tspan></text></svg>