<svg viewBox="0 0 1024 1024" xmlns="http://www.w3.org/2000/svg" fill-rule="evenodd" clip-rule="evenodd" stroke-linejoin="round" stroke-miterlimit="1.414"><g fill="#00bcd4"><path d="M524.28 684.243l.405.015 11.318.808.712.061 4.901.585 7.141.876 5.047.847 6.698 1.154 5.154 1.117 6.398 1.424 5.191 1.382 6.152 1.685 5.195 1.645 5.925 1.931 5.181 1.912 4.542 1.723c-4.797 69.361-37.919 130.96-87.843 173.271-50.648-42.898-83.976-105.58-88.062-176.134l.501-.188 5.465-1.83 5.262-1.703 5.14-1.481 5.796-1.575 4.997-1.211 6.149-1.359 4.901-.967 6.475-1.108 4.778-.73 6.898-.84 4.525-.493 7.739-.563 4.092-.268 1.274-.046 10.174-.22 11.779.28z"/><path d="M814.785 683.963C719.257 653.607 617.526 637.226 512 637.226c-105.526 0-207.257 16.381-302.785 46.737L512 149.321l302.785 534.642zm-141.1-101.404C621.05 573.675 567.041 569.056 512 569.056s-109.051 4.619-161.685 13.503L512 286.636l161.685 295.923z"/></g></svg>