<svg viewBox="0 0 980 150" xmlns="http://www.w3.org/2000/svg" fill-rule="evenodd" clip-rule="evenodd" stroke-linejoin="round" stroke-miterlimit="1.414"><g fill="#00bcd4"><path d="M58.292 104.297l.066.002 1.829.131.115.01.792.094 1.154.142.816.137 1.083.186.833.181 1.034.23.839.223.994.272.84.266.957.312.838.309.734.279c-.776 11.21-6.129 21.166-14.198 28.005-8.186-6.934-13.573-17.065-14.233-28.468l.081-.03.883-.296.851-.275.83-.24.937-.254.808-.196.994-.22.792-.156 1.046-.179.773-.118 1.115-.136.731-.079 1.251-.091.661-.044.206-.007 1.644-.036 1.904.046z"/><path d="M105.938 104.251C90.498 99.345 74.056 96.698 57 96.698c-17.055-.001-33.497 2.647-48.937 7.553L57 17.84l48.938 86.411zM83.133 87.862A156.91 156.91 0 0 0 57 85.679c-8.896 0-17.625.747-26.132 2.183L57 40.033l26.133 47.829z"/></g><text x="128.737" y="107.377" font-family="'AvenirNext-UltraLight','Avenir Next',sans-serif" font-weight="275" font-size="87.342">P<tspan x="180.055px 233.347px 308.351px 351.416px 404.349px 468.766px 515.06px 537.49px 590.782px 643.715px 695.033px 746.352px 799.285px 843.964px 864.958px" y="107.377px 107.377px 107.377px 107.377px 107.377px 107.377px 107.377px 107.377px 107.377px 107.377px 107.377px 107.377px 107.377px 107.377px 107.377px">ROJECT ZEPPELIN</tspan></text></svg>